<svg
  xmlns="http://www.w3.org/2000/svg"
  id="svg2"
  viewBox="0 0 1667.8986 200"
  height="100%"
  width="100%">
  <g
     transform="translate(1107.6429,-194.64282)"
     id="layer1">
    <g
       transform="translate(294.28571,300)"
       id="g4158">
      <g
         transform="translate(-1.4285714,-48.571429)"
         id="g4209">
        <g
           transform="matrix(0.95821236,0,0,0.95821236,-58.523583,5.9845846)"
           id="g4159">
          <path
            style="fill:"
            id="mizziSVG"
            d="m 10.78777,-65.507755 c -51.32323,0 -42.46558,86.910031 -9.52539,95.736328 -0.16945,28.889532 -0.79585,57.774182 -1.66797,86.650397 l -4.00586,5.51562 c -4.6715,6.43279 -6.04773,8.89958 -6.05273,10.85938 -0.005,1.84251 2.90024,5.28176 4.75976,5.63476 2.82688,0.53664 23.04766,-0.36074 24.65234,-1.09375 3.86305,-1.76462 3.87366,-6.0771 0.0273,-11.38671 -1.03017,-1.42211 -2.5348,-3.87242 -3.34375,-5.44532 l -1.4707,-2.85937 c 0.67627,-29.625695 1.22907,-57.971025 1.96484,-87.541023 35.7952,-9.591268 41.47365,-96.070312 -5.33784,-96.070312 z m 290.13672,0.527344 c -45.05435,6.095915 -35.65582,86.878473 -3.96094,95.371094 -0.16945,28.889532 -0.79585,57.774172 -1.66797,86.650397 l -4.00586,5.51562 c -4.6715,6.43279 -6.04773,8.89958 -6.05273,10.85938 -0.005,1.84251 2.90024,5.28176 4.75976,5.63476 2.82688,0.53664 23.04767,-0.35878 24.65235,-1.09179 3.86304,-1.76462 3.87364,-6.07711 0.0273,-11.38672 -1.03017,-1.42211 -2.5348,-3.87241 -3.34375,-5.44531 l -1.4707,-2.86133 c 0.67627,-29.625705 1.22907,-57.971025 1.96484,-87.541023 34.29705,-9.18986 40.94593,-88.965665 0.26563,-95.626953 -1.77686,-0.290956 4.27436,68.6269531 -6.61328,68.6269531 -10.51173,0 -2.78448,-68.9445901 -4.55469,-68.7050781 z m -446.25586,57.1113281 c -1.81575,0.02265 -4.14707,0.316142 -7.19727,0.859375 -4.9492,0.88145 -9.13736,1.219922 -12.88867,1.039062 -6.45265,-0.31109 -9.37134,0.314357 -10.76953,2.310547 -2.40469,3.43318 -0.25385,7.682019 6.98242,13.7929689 2.49419,2.10632 4.71231,4.292895 4.92969,4.859375 0,0 -9.31834,62.63618 -14.27344,94.324225 -0.36006,0.9206 -2.88476,3.6925 -5.60937,6.16016 -5.63138,5.10032 -7.40716,7.62665 -7.41016,10.54687 -0.005,4.45637 4.46269,7.11013 10.76953,6.39453 1.82462,-0.20702 6.11458,0.0892 9.65235,0.66602 8.45548,1.37857 11.06779,1.32617 13.08398,-0.25977 3.07626,-2.41978 2.90524,-4.08735 -1.26172,-12.30664 -3.70074,-7.29989 -3.79216,-7.60909 -3.69336,-12.46875 l 9.92578,-66.767585 34.17969,83.197275 c 2.13815,2.02908 3.71216,2.23227 6.41992,0.83203 2.3557,-1.21817 3.93389,-3.79746 6.60742,-10.80274 0,0 20.76645,-44.633475 32.50977,-70.121095 1.27857,-2.78683 2.65186,-5.0664 3.05078,-5.06641 l 11.14453,73.269545 -1.88672,5.37109 c -1.03787,2.95472 -2.72896,7.05589 -3.75781,9.11328 -2.32431,4.64793 -2.39747,7.23339 -0.26562,9.36524 2.14642,2.14643 4.62981,2.06681 11.83789,-0.37696 3.21388,-1.08961 8.20247,-2.39455 11.08593,-2.90039 6.60815,-1.15924 8.42091,-1.85105 9.73047,-3.7207 2.45381,-3.50331 0.62445,-6.85418 -7.09961,-13.00391 -2.06494,-1.64407 -4.20115,-4.04849 -4.9082,-5.52539 0,0 -9.10515,-57.098505 -12.50586,-86.015628 l -0.79883,-6.904297 3.28516,-4.863281 c 1.80648,-2.675021 4.35328,-6.142808 5.66015,-7.7050779 3.03729,-3.63087 3.40112,-7.116002 1,-9.582032 -1.03912,-1.0672 -2.08212,-1.29494 -5.66992,-1.24414 -2.41778,0.03423 -8.80926,0.120506 -14.20312,0.191406 -5.39385,0.07092 -10.59081,0.435357 -11.54883,0.810547 -2.10143,0.82299 -3.43442,3.723589 -2.87695,6.261719 0.22423,1.02092 2.16365,4.1849049 4.31054,7.0292969 2.1469,2.84439 3.9043,5.420682 3.9043,5.726562 l -36.82031,78.47852 c -1.6344,3.506005 -3.25129,6.375005 -3.5918,6.375005 -0.34051,0 -0.93721,-0.80996 -1.32617,-1.79883 l -32.79492,-85.251961 c 0,-0.72059 1.56348,-2.980534 3.47461,-5.021484 5.1737,-5.5251699 6.33203,-7.2695689 6.33203,-9.5371089 0,-1.13006 -0.45002,-2.697202 -1,-3.482422 -1.09948,-1.569713 -2.6925,-2.285797 -5.71875,-2.248047 z M 54.653,-2.4979889 c -1.47875,0.01225 -2.83673,0.455871 -3.70703,1.326172 -1.29359,1.293589 -1.33074,1.79857 -0.90429,11.9316399 0.28478,6.76746 0.18989,11.940936 -0.26368,14.353516 -0.85708,4.55881 -0.13455,6.645938 2.63477,7.611328 2.83134,0.98701 4.70745,-0.02383 10.66992,-5.748047 4.11047,-3.94621 5.9526,-5.25019 8.20899,-5.8125 4.18407,-1.04272 51.9309,-1.882568 52.52343,-0.923828 L 55.30925,106.87506 c -4.21165,4.61209 -7.93703,9.1186 -8.27734,10.01367 -1.12739,2.96528 -0.72201,5.89591 1.11914,8.08399 1.67599,1.9918 1.87051,2.0506 5.39453,1.63672 l 78.18945,-1.04102 6.53711,3.94531 c 5.15704,3.11223 7.10304,3.94622 9.21485,3.94922 5.86025,-2.87558 16.00451,-42.582395 -5.3711,-28.40039 -3.07539,2.0675 -7.40514,4.52268 -9.62109,5.45703 l -4.0293,1.69922 -56.08008,-0.24414 72.6543,-96.257816 c 2.03397,-3.45539 1.53717,-6.300129 -1.58008,-9.037109 -2.63293,-2.3117499 -2.88836,-2.3478089 -7.20898,-1.0371089 L 67.42644,6.630917 64.2741,3.3379481 c -1.73298,-1.8113 -4.06825,-3.872285 -5.18946,-4.578125 -1.35319,-0.851895 -2.95288,-1.270061 -4.43164,-1.257812 z m 116.65625,0.169922 c -1.47875,0.0122 -2.83673,0.455871 -3.70703,1.326171 -1.29359,1.29359 -1.33074,1.798571 -0.9043,11.9316409 0.28479,6.767459 0.1899,11.940936 -0.26367,14.353516 -0.85708,4.5588 -0.13455,6.645938 2.63477,7.611328 2.83134,0.98701 4.70745,-0.02381 10.66992,-5.748047 4.11047,-3.94621 5.95261,-5.25019 8.20898,-5.8125 4.18408,-1.04272 51.93091,-1.882568 52.52344,-0.923828 L 171.9655,107.04498 c -4.21165,4.61209 -7.93703,9.11861 -8.27734,10.01368 -1.12739,2.96528 -0.72201,5.8959 1.11914,8.08398 1.67599,1.9918 1.87051,2.0506 5.39453,1.63672 l 78.18945,-1.04102 6.53711,3.94532 c 5.15704,3.11223 7.10304,3.94622 9.21485,3.94921 4.3896,0.007 5.02198,-1.23401 5.59179,-10.98046 0.26693,-4.56585 0.79641,-9.32974 1.17579,-10.58594 1.07744,-3.56755 0.84826,-7.50835 -0.53516,-9.2168 -2.09464,-2.58678 -5.14258,-1.9607 -11.60352,2.38281 -3.07539,2.0675 -7.40514,4.52269 -9.62109,5.45704 l -4.0293,1.69921 -56.08007,-0.24414 72.65429,-96.257814 c 2.03397,-3.455389 1.53717,-6.300129 -1.58008,-9.037109 -2.63293,-2.3117499 -2.88836,-2.3478089 -7.20898,-1.0371099 L 184.08269,6.800839 180.93035,3.5078701 c -1.73298,-1.8113 -4.06825,-3.872285 -5.18946,-4.578125 -1.35319,-0.8519 -2.95288,-1.270062 -4.43164,-1.257812 z"/>
          <path
            style="fill:"
            id="kokenMetSVG"
            d="m -1293.587,142.78753 c -2.6677,-0.64537 -4.6026,-3.27638 -6.0829,-8.27145 -0.8124,-2.74146 -2.4274,-7.2566 -3.5887,-10.03364 -2.101,-5.02378 -2.1722,-5.09824 -14.185,-14.81963 -6.6403,-5.37375 -20.7796,-17.014034 -31.4206,-25.867264 -10.641,-8.85325 -19.7384,-15.9467 -20.2165,-15.76325 -1.0118,0.38822 -2.8385,24.76891 -2.8385,37.882534 0,9.2649 0.5248,10.93932 6.1589,19.64956 3.9596,6.12163 4.3249,8.82057 1.5469,11.43044 -1.81,1.70034 -1.9145,1.71093 -17.0701,1.72949 -15.0175,0.0183 -15.2791,-0.007 -17.2327,-1.65054 -1.4708,-1.23765 -1.9838,-2.30068 -1.9838,-4.11147 0,-3.43324 1.5663,-6.0983 7.5172,-12.79045 2.8519,-3.20718 5.1876,-6.06526 5.1903,-6.35126 0,-0.28602 0.4685,-6.55373 1.035,-13.928264 3.6024,-46.89544 5.6852,-107.4630304 3.8629,-112.33625 -0.4087,-1.09264 -3.0913,-4.36834 -5.9614,-7.27934 -2.8701,-2.911 -5.5623,-6.21177 -5.9824,-7.33504 -0.9258,-2.4748 0.1392,-6.38092 1.9589,-7.18419 0.6604,-0.291563 8.6635,-0.584066 17.7846,-0.650007 20.1494,-0.145677 21.1709,0.15454 21.1709,6.221927 0,1.88055 -0.9833,3.17675 -6.2993,8.30386 -4.9095,4.73503 -6.3812,6.60504 -6.6706,8.47576 -0.5632,3.6399196 -1.0672,54.9747 -0.5398,54.9747 1.7959,0 56.602,-51.7191604 58.3136,-55.02904 0.5678,-1.09829 1.3776,-4.32972 1.7993,-7.18095 0.4218,-2.85123 1.0875,-6.21116 1.4795,-7.46652 1.401,-4.48762 6.7237,-6.55698 10.3436,-4.02148 0.8684,0.60823 3.2081,3.54569 5.1994,6.5277 1.9913,2.982 5.7974,7.69032 8.458,10.46292 4.0606,4.2316096 4.8372,5.4300096 4.8372,7.4632196 0,1.69042 -0.5492,2.93822 -1.8184,4.13046 -1.6656,1.56484004 -2.5444,1.73815004 -10.4641,2.06367004 l -8.6456,0.35537 -3.8263,2.90546996 c -8.3524,6.34237 -57.1063,51.4749304 -57.1063,52.8644904 0,2.18698 58.802,49.923604 63.8688,51.850044 1.074,0.40835 6.0737,1.07287 11.1102,1.47675 12.7458,1.02205 14.6444,1.9524 14.6444,7.17553 0,2.71421 -0.3721,3.26124 -5.6066,8.24154 -3.583,3.40896 -6.8031,7.33651 -8.9214,10.88135 -2.4737,4.13973 -3.9101,5.7958 -5.6618,6.5277 -1.2908,0.53939 -2.4367,0.94387 -2.5463,0.89884 -0.1094,-0.045 -0.8341,-0.23551 -1.6105,-0.42329 z m 726.74999,-2.72413 c -2.38518,-2.38505 -2.06002,-4.83259 1.97791,-14.88932 3.05409,-7.60662 3.06829,-7.68314 3.31163,-17.87192 0.29801,-12.474114 -0.93364,-39.281824 -2.39929,-52.221564 -1.89833,-16.75985 -5.15693,-27.80425 -9.12481,-30.92527 -5.08006,-3.99595 -13.3082,0.87143 -18.54841,10.97228 -5.18027,9.98533 -5.19487,10.10575 -4.95328,40.9069 0.23847,30.420764 -0.0292,28.662074 5.30403,34.796124 5.75305,6.61637 6.42069,9.02162 3.45952,12.46412 l -1.68359,1.95735 -13.66527,0.5639 c -15.11954,0.6239 -16.87756,0.33023 -18.2791,-3.0533 -1.24965,-3.017 -0.34481,-6.07534 3.104,-10.49188 7.01886,-8.98807 6.62219,-7.55618 7.14651,-25.786714 1.10819,-38.53304 -3.38304,-62.45416 -11.72589,-62.45416 -7.35559,0 -15.80468,10.66061 -23.18616,29.25473 l -2.22854,5.61389 0.072,23.67251 c 0.0428,13.91719 0.3741,24.797274 0.8054,26.401844 0.40349,1.50113 2.13329,4.83555 3.84364,7.40981 1.71064,2.57428 3.30706,5.66861 3.54767,6.87628 0.49348,2.47675 -1.08309,6.19682 -3.05915,7.21807 -0.67523,0.34897 -6.95785,0.59656 -13.96124,0.55019 -14.38224,-0.0951 -16.12109,-0.59359 -16.9195,-4.84974 -0.58659,-3.12678 0.48677,-5.63579 4.90532,-11.46556 2.05906,-2.71694 4.14253,-5.70697 4.62988,-6.64453 1.4856,-2.85851 2.15051,-26.039104 1.39852,-48.752654 -0.77311,-23.34795 -1.91914,-41.09917 -2.79723,-43.32681 -0.32195,-0.81671 -2.22669,-3.07275 -4.23301,-5.01342 -2.00613,-1.9406704 -4.09894,-4.3860104 -4.6508,-5.4341104 -1.53191,-2.91003 -1.27407,-6.60228 0.58465,-8.3742 1.45572,-1.38777 2.12891,-1.48286 8.09552,-1.14379 4.52626,0.25721 7.96408,0.038 11.29108,-0.71979 10.18192,-2.31922 13.59541,-1.86146 14.94285,2.00385 1.04923,3.00971004 -0.0146,5.15269 -5.25159,10.57705 -2.48959,2.5787004 -4.87662,5.5993504 -5.30482,6.7125504 -0.85308,2.2178 -0.26026,11.98513 0.76591,12.61927 0.3311,0.20465 1.54689,-0.9841 2.70208,-2.64165 2.73106,-3.91929 8.83467,-9.77227 12.6462,-12.12684 1.658,-1.02424 4.97605,-2.36477 7.3735,-2.9789704 9.42136,-2.41362 16.72996,0.9602404 22.54197,10.4059404 1.16773,1.89771 2.23924,3.45038 2.3812,3.45038 0.14214,0 2.5859,-2.32763 5.43071,-5.17252 3.54581,-3.5458 6.7044,-5.92665 10.04346,-7.57049 15.91755,-7.8361704 28.00986,0.72873 34.15559,24.19209 1.98569,7.58185 2.74877,15.48577 4.00407,41.47817 1.89122,39.162834 1.95456,39.798774 4.26425,42.867544 1.0969,1.45744 3.5176,4.09511 5.37914,5.86149 2.87448,2.7274 3.3848,3.61215 3.3848,5.86839 0,5.516 -2.42284,7.13833 -12.30635,8.2404 -3.72105,0.41491 -7.8627,1.21285 -9.20381,1.77318 -3.92731,1.64097 -7.88732,1.32488 -10.01107,-0.7991 z m -311.80023,-8.05464 c -10.50289,-0.50281 -12.71577,-1.13911 -13.7903,-3.96522 -0.87293,-2.29603 0.10051,-4.56016 5.47975,-12.74498 3.73603,-5.68446 4.3056,-7.01307 4.6903,-10.9383 1.18564,-12.099704 4.1039,-85.272534 3.51614,-88.163824 -0.2051,-1.0093 -2.26318,-4.33945 -4.57354,-7.4003304 -4.63231,-6.13729 -5.40289,-8.04201996 -4.26454,-10.54048 1.10498,-2.42527 4.18184,-2.95833 20.02953,-3.47025 13.37144,-0.43192 13.96601,-0.3936 15.34896,0.98938 3.09116,3.09115 1.68719,6.83703 -5.7946,15.4617404 l -5.46924,6.30447 0,4.30303 c 0,2.36667 0.24587,4.30304 0.54641,4.30304 0.30045,0 1.96371,-1.94633 3.69594,-4.32519 11.70819,-16.0778304 28.3679,-22.18858036 42.08367,-15.4362704 9.0745,4.4673104 17.21284,16.4749504 21.764,32.1111504 1.69721,5.83145 6.19895,29.18535 9.23592,47.91371 1.45855,8.99461 3.13951,11.8115 9.60408,16.094094 4.44161,2.94257 5.88819,5.63726 4.76123,8.86992 -0.97626,2.80054 -2.69313,3.6127 -10.94267,5.17651 -4.02986,0.76392 -9.46524,2.19375 -12.07858,3.17742 -5.41846,2.03956 -8.70644,1.84581 -10.42963,-0.61458 -1.67289,-2.38816 -1.31835,-4.72678 1.91291,-12.61934 3.47168,-8.480374 3.59564,-10.930944 1.31495,-26.008774 -5.14973,-34.04522 -9.65915,-49.5248 -16.47272,-56.54565 -8.77824,-9.04531 -21.63159,-5.77702 -30.87869,7.85163 -7.45708,10.99038 -14.57245,29.36048 -15.85431,40.93135 -1.18525,10.699 -2.32749,34.825344 -1.74498,36.856624 0.35035,1.22185 2.30044,5.09944 4.33332,8.61683 4.2945,7.43054 4.83867,10.91999 2.05409,13.17471 -1.78819,1.44799 -1.42022,1.435 -18.0774,0.63758 z m -185.09246,-1.81431 c -2.0628,-1.4449 -3.4037,-4.15744 -3.9904,-8.07267 -0.2618,-1.7466 -0.7983,-4.8438 -1.1925,-6.88266 l -0.7165,-3.70703 -21.5047,-18.762324 c -13.7615,-12.00666 -21.8744,-18.6204 -22.5317,-18.36815 -0.8527,0.32721 -1.0273,2.83768 -1.0273,14.7737 l 0,14.379534 2.9382,4.52 c 4.0211,6.18584 6.9416,11.81249 6.9416,13.37354 0,0.71521 -0.7572,2.18075 -1.6829,3.25674 l -1.6827,1.95636 -13.6451,-0.21113 c -7.5048,-0.11612 -14.1769,-0.49572 -14.827,-0.84355 -0.6499,-0.34784 -1.4958,-1.53364 -1.8797,-2.6351 -0.9895,-2.83816 0.3066,-6.10203 4.8629,-12.24625 l 3.8022,-5.12734 0.4612,-13.791184 c 0.2534,-7.58516 0.4917,-34.29267 0.5292,-59.35004 l 0.068,-45.55885 -4.9181,-6.89387 c -6.3328,-8.87682 -7.19,-13.05436 -3.2134,-15.659949 1.3957,-0.914582 2.5224,-0.958011 7.5379,-0.290577 4.2348,0.563555 7.5807,0.573568 11.8714,0.03556 8.7351,-1.095292 11.0806,-0.973148 12.716,0.662225 2.7958,2.795951 1.6394,6.908881 -4.0139,14.275471 -5.3601,6.98436 -5.1602,5.48787 -5.1602,38.62911 0,24.3491 0.1697,29.66193 0.9474,29.66193 1.4589,0 17.8707,-13.90087 26.874,-22.76265 7.9262,-7.80156 8.0703,-8.0005 8.5559,-11.81648 0.7212,-5.6649804 2.3385,-11.4251304 3.5994,-12.81833036 0.6049,-0.66858 2.0407,-1.42223004 3.1905,-1.67477004 3.7293,-0.81909 6.025,0.83182004 10.5833,7.611 2.3334,3.47033 6.1025,8.1409504 8.3757,10.3791304 4.2647,4.19898 5.3883,6.51773 4.6274,9.54943 -0.8423,3.35606 -3.3817,4.22531 -12.371,4.23464 -8.0163,0.008 -8.2153,0.0477 -11.3351,2.24288 -6.3175,4.44502 -33.8734,27.76693 -33.8734,28.66863 0,0.90356 3.3592,3.91557 22.1628,19.87215 12.6169,10.7066 20.7928,17.24082 23.0018,18.38313 1.0174,0.52608 5.1649,1.265474 9.2168,1.643094 8.4595,0.78843 10.8336,1.65059 11.947,4.33833 1.3649,3.29511 0.1073,5.59293 -6.9814,12.75627 -3.725,3.76422 -8.0674,8.31272 -9.6497,10.10774 -3.1573,3.58178 -5.6824,4.21566 -8.614,2.16233 z m 723.25988,-4.95526 c -11.5883,-3.1163 -19.4426,-11.57762 -22.382,-24.11187 -1.4835,-6.325794 -1.3594,-19.940544 0.3715,-40.753994 0.9375,-11.273 1.1263,-16.50048 0.6187,-17.11314 -0.8919,-1.07571 -6.0863,-1.15652 -8.8045,-0.13698 -1.0927,0.40983 -3.5745,2.30089 -5.515,4.20236 -1.9408,1.90147 -4.7195,3.95214 -6.1749,4.55704 -2.3322,0.96922 -2.9358,0.97893 -5.0832,0.0816 -3.3126,-1.38409 -3.9938,-4.11853 -2.6517,-10.64475 0.5589,-2.71693 1.2177,-9.01509 1.4644,-13.99589 0.3883,-7.84352 0.6318,-9.18993 1.8182,-10.05618 3.1071,-2.26851 5.5176,-1.11341 12.0517,5.77497 l 4.9531,5.22171 4.6747,0 c 3.4011,0 4.7802,-0.27476 5.0618,-1.00843 0.2128,-0.55463 0.6073,-6.0326 0.8767,-12.17327 l 0.4898,-11.1648404 -4.6825,-5.5083 c -4.0704,-4.78798 -4.6826,-5.87651 -4.6826,-8.32402 0,-2.0081296 0.4717,-3.2875496 1.645,-4.4608496 1.6297,-1.62968 1.7898,-1.64412 17.0148,-1.53627 15.1884,0.1076 15.3854,0.12831 16.703,1.75541 2.8097,3.46988 1.0409,9.2723096 -3.9982,13.1158496 -5.0243,3.83221 -5.8965,6.06978 -7.0494,18.0836504 -0.9725,10.13411 -0.9619,10.9278 0.1582,11.75034 1.6298,1.19673 27.4767,1.74865 31.4619,0.67182 1.0724,-0.28975 4.0018,-2.26766 6.51,-4.39536 7.9339,-6.73058 11.7176,-7.50324 14.5029,-2.96164 1.2228,1.99398 1.3979,3.58044 1.4196,12.86003 0.014,5.822 0.082,11.91792 0.1534,13.54649 0.18,4.14053 -2.1195,6.56586 -6.2253,6.56586 -2.5459,0 -3.957,-0.70606 -9.9331,-4.97018 -3.8312,-2.73359 -7.6009,-5.10776 -8.3771,-5.27592 -0.7763,-0.16816 -7.9215,-0.61497 -15.8782,-0.99292 -11.0887,-0.52672 -14.6484,-0.48945 -15.2446,0.15961 -0.4481,0.48772 -1.4487,9.8664 -2.3598,22.11688 -1.7181,23.09876 -1.5171,27.9574 1.4413,34.834434 4.8804,11.34493 18.8024,13.41866 32.0413,4.77268 4.1553,-2.71374 5.5968,-5.30836 6.9627,-12.532114 1.1019,-5.82704 3.1882,-8.4732 6.6808,-8.4732 3.1269,0 4.9129,1.85733 8.3323,8.66595 2.1463,4.27335 4.6306,7.894294 7.3826,10.760294 5.0433,5.25208 5.7769,7.66629 3.2294,10.62714 l -1.7688,2.0558 -10.4697,0.0632 -10.4697,0.0632 -8.0335,3.69374 c -11.6971,5.37822 -20.1779,6.75681 -28.236,4.58991 z M -981.3161,123.0631 c -22.3142,-3.51443 -37.3059,-13.14544 -44.8071,-28.785124 -4.0743,-8.49462 -5.3715,-14.71626 -5.366,-25.73609 0.01,-15.56069 3.7155,-27.13959 12.3821,-38.66865 7.9362,-10.55763 22.54323,-19.8879104 37.43811,-23.9138204 3.94658,-1.0667 7.35229,-1.33286 16.93672,-1.32364 13.46299,0.013 19.31236,1.17873 27.4974,5.4802604 5.49307,2.8868 12.30683,9.6648 14.69649,14.6196 4.9529,10.269 3.65236,25.22294 -3.03949,34.94914 -4.25432,6.18343 -13.0778,11.75285 -21.80915,13.7662 -4.72668,1.08991 -17.09326,0.49613 -22.638,-1.08697 -2.13475,-0.6095 -7.46749,-1.54438 -11.85062,-2.07752 -9.95843,-1.21126 -11.43732,-2.04867 -11.43732,-6.47616 0,-3.03442 0.29821,-3.54651 4.81931,-8.27566 2.65061,-2.7726 6.31269,-7.015 8.13814,-9.42756 3.90639,-5.16299 5.69059,-6.55183 8.41689,-6.55183 4.38907,0 6.41076,2.67949 7.18932,9.52764 1.06363,9.35783 1.96137,10.23187 10.51019,10.23187 4.40162,0 5.54669,-0.27776 8.27308,-2.00682 4.48637,-2.84513 8.27173,-7.5567 9.51934,-11.84846 0.87488,-3.00931 0.92119,-4.48205 0.26017,-8.27789 -1.92907,-11.07706 -9.4021,-16.45715 -25.1414,-18.09999 -16.03752,-1.67397 -27.66602,2.57746 -39.46628,14.42906 -5.3552,5.37856 -6.9728,7.56032 -9.733,13.12813 -8.799,17.74726 -6.2293,39.00476 6.1053,50.50515 8.456,7.884224 16.42962,10.751014 31.57416,11.352134 14.77219,0.58634 26.14179,-1.9463 32.26436,-7.18697 1.83294,-1.568904 4.0428,-4.731514 6.13027,-8.773314 3.53326,-6.84099 5.84616,-9.22735 8.94286,-9.22735 3.70558,0 5.44443,2.47147 6.95095,9.87975 0.74985,3.68727 2.37662,8.866104 3.61518,11.508534 1.75822,3.75109 2.16054,5.37564 1.83499,7.40982 -0.82613,5.16048 -3.99309,5.97012 -14.10222,3.60542 -3.86923,-0.90512 -4.37507,-0.8645 -8.46826,0.68002 -15.64153,5.90212 -22.00851,7.18491 -34.96703,7.04506 -4.89792,-0.0528 -9.69914,-0.22115 -10.66946,-0.37397 z M -470.85039,122.5 c -26.98728,-5.16736 -43.29528,-21.53974 -46.13337,-46.315444 -2.1546,-18.80989 3.63718,-37.3179 15.8584,-50.67578 7.09669,-7.75685 21.16398,-16.0434004 32.49787,-19.1433004 8.57801,-2.34617 23.16495,-2.69281 32.46158,-0.77143 13.53149,2.79664 23.34456,9.6526304 28.05685,19.6023204 2.22932,4.70689 2.28857,5.07868 2.28857,14.35891 l 0,9.5269 -2.63562,5.51982 c -4.51994,9.46601 -13.37777,16.28969 -24.46365,18.84555 -5.05038,1.16435 -16.44236,0.53819 -23.71087,-1.30329 -3.10517,-0.78667 -8.18611,-1.65082 -11.29108,-1.92035 -6.99998,-0.6076 -10.01768,-1.78356 -10.96398,-4.27253 -1.10799,-2.91425 0.2411,-5.85263 4.68135,-10.19571 2.1653,-2.11789 5.35735,-5.82353 7.09329,-8.23475 5.5246,-7.67307 9.16898,-9.55098 13.29234,-6.84929 1.92838,1.26348 2.88839,3.8365 3.53307,9.46909 0.92994,8.12517 2.13037,9.17407 10.49948,9.17407 4.42264,0 5.52986,-0.27154 8.24604,-2.02224 6.78341,-4.3723 9.84139,-9.46418 9.84139,-16.38655 0,-10.71566 -5.59252,-17.44405 -17.04209,-20.50323 -6.26414,-1.67366 -18.8687,-2.01708 -24.59392,-0.67006 -15.27998,3.59499 -30.83754,18.1691 -35.64683,33.39353 -5.18844,16.42403 -1.58425,33.9035 9.10759,44.17028 7.88361,7.570264 16.41317,10.605304 31.479,11.201024 11.15049,0.44089 19.56309,-0.73843 25.87238,-3.62688 6.35404,-2.90899 8.17044,-4.69272 11.86677,-11.652994 4.72854,-8.90378 8.16548,-11.4512 12.39557,-9.18733 1.9783,1.0587 2.79363,2.97931 4.21968,9.94016 0.70374,3.43459 2.25832,8.316474 3.45466,10.848614 2.4473,5.17998 2.622,6.62917 1.1428,9.48954 -1.64368,3.17851 -4.97097,3.71281 -11.25301,1.80708 -5.03969,-1.52889 -6.95212,-1.33085 -13.86784,1.43601 -11.23747,4.49607 -15.9482,5.41024 -29.24385,5.67524 -8.15847,0.16261 -13.61127,-0.07 -17.04257,-0.72698 z m -748.63841,-4.90366 c -19.2686,-4.47171 -32.2575,-16.48147 -36.7017,-33.935024 -1.5984,-6.27746 -2.103,-17.41815 -1.0707,-23.64084 2.737,-16.49891 14.0691,-32.03532 28.7708,-39.44532 8.6645,-4.36715 24.4485,-5.69601 35.01,-2.9475 6.6671,1.73502 15.3525,6.22864 20.1494,10.42486 6.9123,6.04671 12.4755,16.57325 14.5964,27.61945 1.3264,6.90794 1.2731,21.77808 -0.099,27.59918 -3.7867,16.06541 -15.6681,27.320304 -34.7414,32.909504 -7.6777,2.2498 -19.5297,2.8973 -25.9139,1.41569 z m 22.0827,-16.04083 c 10.3623,-3.170174 18.1477,-9.295304 21.7129,-17.082694 4.8202,-10.52882 3.115,-29.53372 -3.5631,-39.71058 -5.682,-8.6589 -15.1947,-13.30909 -27.177,-13.28531 -6.8772,0.0136 -10.9642,1.16901 -19.2904,5.45316 -7.1551,3.68153 -10.8248,8.23711 -13.9666,17.33736 -3.7262,10.79346 -3.1868,21.96039 1.5277,31.63438 3.1908,6.5471 7.01,10.40956 13.5799,13.73341 8.6086,4.355334 17.2266,4.964274 27.1766,1.920274 z"/>
        </g>
      </g>
    </g>
  </g>
</svg>
