<svg
   xmlns="http://www.w3.org/2000/svg"
   version="1"
   id="mizziSVG"
   viewBox="0 0 532 205"
   height="100%"
   width="100%">
  <defs
     id="defs4" />
  <g
     transform="translate(-101,-183)"
     id="layer1">
    <g
       transform="translate(294,300)"
       id="g4158">
      <g
         transform="translate(-1,-49)"
         id="g4209">
        <path
           id="path4160"
           transform="translate(-192,-69)"
           d="M 202 0 C 151 0 160 87 193 96 C 193 125 192 154 191 182 L 187 188 C 182 194 181 197 181 199 C 181 201 184 204 186 204 C 189 205 209 204 211 203 C 214 202 214 197 211 192 C 210 190 208 188 207 186 L 206 184 C 206 154 207 126 208 96 C 243 86 249 -9e-15 202 0 z M 492 1 C 447 7 457 87 489 96 C 488 125 488 154 487 183 L 483 188 C 478 194 477 197 477 199 C 477 201 480 204 482 205 C 484 205 505 204 506 203 C 510 202 510 197 506 192 C 505 191 504 188 503 187 L 501 184 C 502 154 503 126 503 96 C 538 87 544 7 504 1 C 502 0 508 69 497 69 C 487 69 494 0 492 1 z M 46 58 C 44 58 42 58 39 58 C 34 59 30 60 26 60 C 20 59 17 60 15 62 C 13 65 15 70 22 76 C 25 78 27 80 27 81 C 27 81 18 143 13 175 C 13 176 10 179 7 181 C 2 186 0 189 0 192 C -0 196 4 199 11 198 C 13 198 17 198 20 199 C 29 200 31 200 34 198 C 37 196 36 194 32 186 C 29 179 28 178 29 174 L 38 107 L 73 190 C 75 192 76 192 79 191 C 81 190 83 187 86 180 C 86 180 106 135 118 110 C 119 107 121 105 121 105 L 132 178 L 131 183 C 129 186 128 191 127 193 C 124 197 124 200 126 202 C 129 204 131 204 138 202 C 142 200 147 199 149 199 C 156 198 158 197 159 195 C 162 191 160 188 152 182 C 150 180 148 178 147 176 C 147 176 138 119 135 90 L 134 84 L 137 79 C 139 76 141 72 143 71 C 146 67 146 64 144 61 C 143 60 142 60 138 60 C 136 60 129 60 124 60 C 118 60 113 61 112 61 C 110 62 109 65 109 67 C 110 68 112 72 114 74 C 116 77 118 80 118 80 L 81 159 C 79 162 78 165 77 165 C 77 165 76 164 76 163 L 43 78 C 43 77 45 75 47 73 C 52 67 53 66 53 63 C 53 62 53 61 52 60 C 51 58 49 58 46 58 z M 246 63 C 245 63 243 63 243 64 C 241 66 241 66 242 76 C 242 83 242 88 241 91 C 240 95 241 97 244 98 C 247 99 249 98 255 92 C 259 89 261 87 263 87 C 267 86 315 85 315 86 L 247 172 C 243 177 239 182 239 182 C 237 185 238 188 240 190 C 241 192 242 193 245 192 L 323 191 L 330 195 C 335 198 337 199 339 199 C 345 196 355 156 334 171 C 331 173 326 175 324 176 L 320 178 L 264 177 L 337 81 C 339 78 338 75 335 72 C 332 70 332 70 328 71 L 259 72 L 256 69 C 254 67 252 65 251 64 C 249 63 248 63 246 63 z M 363 63 C 361 63 360 64 359 65 C 358 66 358 66 358 76 C 359 83 358 88 358 91 C 357 95 358 97 361 98 C 363 99 365 98 371 93 C 375 89 377 87 380 87 C 384 86 431 85 432 86 L 364 173 C 359 177 356 182 355 183 C 354 186 355 188 356 191 C 358 193 358 193 362 192 L 440 191 L 446 195 C 452 198 454 199 456 199 C 460 199 461 198 461 188 C 462 184 462 179 462 178 C 464 174 463 170 462 168 C 460 166 457 166 450 171 C 447 173 443 175 441 176 L 437 178 L 381 178 L 453 81 C 455 78 455 75 452 72 C 449 70 449 70 444 71 L 376 72 L 372 69 C 371 67 368 65 367 64 C 366 64 364 63 363 63 z "
           style="fill:"" />
      </g>
    </g>
  </g>
</svg>
